<svg xmlns="http://www.w3.org/2000/svg" xmlns:xlink="http://www.w3.org/1999/xlink" viewBox="0 0 300 300"><defs><style>.cls-1{fill:url(#linear-gradient);}.cls-2{fill:#fff;}.cls-3{fill:#ae862a;}</style><linearGradient id="linear-gradient" y1="150" x2="300" y2="150" gradientUnits="userSpaceOnUse"><stop offset="0" stop-color="#e2b873"/><stop offset="1" stop-color="#b3801f"/></linearGradient></defs><g id="Camada_4" data-name="Camada 4"><circle class="cls-1" cx="150" cy="150" r="150"/></g><g id="Camada_3" data-name="Camada 3"><path class="cls-2" d="M160.45,152.13a12,12,0,0,0-.39,2.23c3.35-3.35,9.08-7.92,15.32-7.92a17.36,17.36,0,0,1,5.79,1.08,13.25,13.25,0,0,0-5.92-1.89C169.62,145.45,164.17,149,160.45,152.13Z"/><path class="cls-2" d="M75.47,107.31a54.86,54.86,0,0,0-1.4,5.83c-1.24,6.74-1.69,14.55-3.15,21.25-1.4,6.45-5.35,12-7.54,18.1-3.4,9.51-3.5,19.43-1.52,30.2,1.45,7.93,5.54,19,11.7,25.2a61.54,61.54,0,0,0,8,7C73.37,207.45,68.63,193,71.3,186.12l1.21,0c-.63,5.95,1.48,10.35,5.3,12.07l.32.16-.15-.18c-4.67-6.49-1.7-22.06,5.37-28.4,1.51-1.36,5.15-29.14,6-32.72,1.43-6.42,5.56-9.11,8.77-11.66a16.2,16.2,0,0,0,3.63-3.45,31,31,0,0,0,2.28-4.44,54.83,54.83,0,0,1,6.42-11.4c.11-.16.65-6.12.74-6.2,2.15-1.89,13.91-2.37,24-5.76,6-2,5.18-7.21,5.73-13.87a18.64,18.64,0,0,1,1.29-6.78c1.39-.26,2.83-.5,4.32-.71a17.72,17.72,0,0,0,2.43,8.52c2.49,3.92,6.75,5.94,10.68,7.48a20.1,20.1,0,0,1-9.4-16.44,66,66,0,0,1,10.44-.22c.53,7.3,5.9,9.74,13,12,3.58,1.16,16,5.48,25.15,12.64,4.3,3.36,7,7.23,9.94,11.33,3.08,4.36,6.26,8.86,11.84,13.46,6.25,5.15,8.15,9.41,10.57,14.81q.28.66.6,1.35c1.51-9.54-6-15.79-11.2-20.08l-.63-.53c-2.83-2.36-4.91-5.53-7.32-9.2a72.33,72.33,0,0,0-9.52-12.29c-6.88-6.88-21.3-12.53-30.84-16.27l-.65-.26c-2.35-.92-3.8-3-4.36-6.1l.1,0-.13-.15,0-.18s29.12,9.47,39,23a80,80,0,0,1,8.27,11c2.31,3.53,4.3,6.57,6.88,8.71l.63.53c5.74,4.75,15.22,12.62,11.3,25a30.81,30.81,0,0,0,1.68,3c3.79-10.7-.23-18-4.82-23.09l1-2.2c3.76,4,8,9.54,8,17.07,0,1.14,0,1,.28-.13,2-10.2-3-16-11.58-22.38-13.49-10.08-14.94-19.12-15-20.25l2.85-.21c.14.29.6,1.26,1.08,2.08a21.53,21.53,0,0,0,3.33,4.09q-.68-2.37-1.53-4.68a13.82,13.82,0,0,1-.79-1.65h.14c-9.62-23.89-33.45-41.51-64.37-41.51-17.39,0-34.69,5-48.76,15.39A82.38,82.38,0,0,0,80.29,95.34,70.64,70.64,0,0,0,75.47,107.31Z"/><path class="cls-2" d="M209.26,206.09c-.14-.4-.26-.8-.39-1.19-.36-1.14-.67-2.13-.8-2.79-.32-1.62-.28-3.53,2-5.84.76-.78,1.59-1.84,2.6-3.07,3.59-4.39,5.74-8.85,6.41-13.27a15.79,15.79,0,0,0-.82-8.38,24.38,24.38,0,0,1-1.85-13.7h0a32.59,32.59,0,0,1,1.47-6c1.84-5.31-7.69-26.5-16.35-35.2,3.21,5.7,7.52,10.75,7.08,21-.29,6.81,9.06,5.12,6.92,14.92l-.06.28a26.07,26.07,0,0,0,.79,19.44c1.78,4.22,1.57,13.56-7.85,22.69-4.67,4.52-1.79,9.32-1.33,10.49,2.78,7.11,5.8,17.49-6,33.13l1,2.22C215.22,223.56,211.67,213.54,209.26,206.09Z"/><path class="cls-2" d="M149.32,218.44a7.34,7.34,0,0,0,2-1.13,9.87,9.87,0,0,1,3-1.57,25.87,25.87,0,0,1-4.7-5.28,17,17,0,0,1-5.57,5.34,7.89,7.89,0,0,1,3.86,1.8A4.9,4.9,0,0,0,149.32,218.44Z"/><path class="cls-2" d="M194.13,148c-.13-1.14-.31-2.32-.56-3.47-.89-1.87-2.48-3.54-6.74-4.57a26.36,26.36,0,0,0-16.89,2.22,27.78,27.78,0,0,0-4.27,2.72,29.16,29.16,0,0,1,9.7-3C184.3,140.88,191.17,142.32,194.13,148Z"/><path class="cls-2" d="M96.07,211.77a49.74,49.74,0,0,0,1.9-6.63c.83-6,0-9.6-2.2-12.81-4.51-6.69-6.51-13.31-6.06-14.08-3.3,2.77-1.67,10.63,1.81,15.06,2.83,3.61,4.18,5.34,3.07,11a25.92,25.92,0,0,1-1.14,3.75c-2,5.66-5,14.05,7.88,28.81l.45-.76c.21-.36.39-.65.51-.88s.35-.67.51-1c-2.45-2.94-6.24-8.74-7.11-15.17A16.62,16.62,0,0,1,96.07,211.77Z"/><path class="cls-2" d="M103.14,209.77a19.92,19.92,0,0,0-1.2,6.85,18,18,0,0,0,3.43,11l.06-.2C105.56,227,108.64,219.26,103.14,209.77Z"/><path class="cls-2" d="M80.31,181.22c-.25,0-.49-.17-.68.42-2.37,7.48-.25,15.55,9.09,21.53.63-3.28.45-3.51-1.94-6.4-.85-1-1.91-2.29-3.16-4-2-2.66-2.85-6.26-2.71-10.72C80.93,181.35,80.63,181.25,80.31,181.22Z"/><path class="cls-2" d="M109.12,247.59a14.57,14.57,0,0,1,2.11-8.74c.54-1,1.18-2.35,1.66-3.36.31-.65,1.16-2.59,1.39-3.23,1.29-3.64,1.53-7.95,1.46-15.08l2.05,2.72c0,5.81-.38,9.58-1.58,13-.26.73-1.25,2.79-1.59,3.51-.5,1-1,2.35-1.58,3.35a13.15,13.15,0,0,0-1.89,7.67c.27,2.47,5.46,9.15,9.54,12.76-.08-1.09-.11-2.24-.12-3.44-1.2-1.18-4.22-4.19-5-5.16-1.93-2.46-2.69-4.72-2.33-6.36.76-3.49,6.75-15.33,7-15.72l-.57,5.69c0,.09-3.73,7.18-4.44,10.41-.21,1,.21,4,5.36,8.29h0c0-2,.11-4.08.2-6.43.11-3.26.2-6.37.21-9.88h0v-2.24c0-13,2.11-21.72,12.87-27.59,4.37-2.38,5.65-4.57,6-5.76a7.14,7.14,0,0,0-5.41-2.56,1.88,1.88,0,0,1-1.88-1.8c0-.24-.23-5.84-.23-7h3.76c0,.67.09,3.17.16,5.19a10.34,10.34,0,0,1,3.44,1.25c0-.28,0-.54,0-.77,0-1.48.68-26.81.52-38.15a62.6,62.6,0,0,0-11.64-4.63v.14a5.74,5.74,0,0,1-11.48,0,3.4,3.4,0,0,1,0-.45,34.05,34.05,0,0,0-11.36,6.46l-2.81-2.4-.27-.14a35.75,35.75,0,0,1,5.35-7.12c4.54-4.68,9.62-7.16,14.71-7.16h0c4,0,8.28,1.67,12.8,4.92a41.16,41.16,0,0,1,3.84,3.14c-1.67-5.11-6-8.39-9.75-10.35a27.23,27.23,0,0,0-17.8-2.16,15.92,15.92,0,0,0-9.53,6.11l-.37-.77a1,1,0,0,1,0-.91c.82-1.63,3.91-6.82,9.35-8.15a27.47,27.47,0,0,1,20.1,2.55c5.4,2.84,12,8.11,12.44,17.11.45,8.37.27,40.75.33,42.13v.06c0,.5,0,1.1,0,1.83a1.42,1.42,0,0,0,1.42,1.42h5.11a1.43,1.43,0,0,0,1.42-1.42c0-.66,0-1.22,0-1.71,0,0,0-.09,0-.13.05-1.38.33-33.82.33-42.29,0-10.11,17.54-21.85,28.55-25.53-.41-4.6-.68-14.8-.83-22.19-5.23-4.29-13.32-7.13-19-9.12-1.42-.5-2.66-.93-3.72-1.34a48.13,48.13,0,0,1-7-3.28c-2.35,2.4-6.75,6.39-11.32,8.25a73.5,73.5,0,0,1-8.61,2.69,32.75,32.75,0,0,0-15,8.49c.09-.21,2.37-5.24,4.78-7.65,1.58-1.58,5.07-2.52,9.5-3.72A71.51,71.51,0,0,0,138,98.23a8.59,8.59,0,0,0,3.05-2.1c-4.81,1.28-11.66,3.07-13.35,3.53-6.83,1.85-10.26,2.78-14.24,8.53-3.53,5.13-7.53,14-8.63,15.75-.83,1.28-6.55,6.22-10.17,9.37A7.51,7.51,0,0,0,92.11,139c0,9.91.06,38,.06,38.27,0,9.06,11.09,17.74,7.65,28.57-.59,1.87-1.17,4.16-1.83,6.47a15.76,15.76,0,0,0-.29,6.46,27.82,27.82,0,0,0,6,13.57c.39-.9.7-1.69.94-2.37-3-3.13-4.88-8-4.88-13.35,0-4.81,1.46-10.43,5.66-14.41v0l0,0c9.61,12.71,6.2,25.31,5.77,26.74a42.17,42.17,0,0,1-3.53,8.85q-.27.49-.66,1.14a29.15,29.15,0,0,0-3,6.38c2.13,6.2,10.64,15.74,18.69,23.66a23.5,23.5,0,0,1-1.73-6.1C117.93,259.94,109.53,251.29,109.12,247.59Z"/><path class="cls-2" d="M171.74,256.73c0-4.32-.17-14.66-.27-20.07-.24-8.57-5.71-13.1-10.86-16.56a37.81,37.81,0,0,0-5.37-.71,8.3,8.3,0,0,0-1.79,1c-1.29.87-2.62,1.78-4.13,1.78a6.19,6.19,0,0,1-3.61-1.57,4.33,4.33,0,0,0-2.17-1.11,64.75,64.75,0,0,0-7.73,1.13c-4.72,3.27-9.28,7.93-10,14.93h-2.26v7.57l2,2.14c0,.77-.06,1.54-.08,2.3-.49,13.93-.85,18.67,6.89,27.29a35.53,35.53,0,0,1,6.82-10l3.19,3.49c4-4.92,6.36-7.58,7.19-12.69l2.13-2.14c-.49,6.88-3,10-8.05,16.21h0c-5.21,6.21-7.1,12.75-6,18.66.08.41.19.89.33,1.37a18.53,18.53,0,0,1,3.23-13.29c1.8-2.63,3.52-4.8,5-6.72,4.37-5.53,7.18-9.41,7.6-18.37l1.83-1.84c-.12,10.93-3.31,15.35-8,21.32-1.5,1.89-3.21,4-5,6.62a17.23,17.23,0,0,0-2.08,15.59c-.33-4.84.89-11.33,6.92-18.55,8.79-10.5,10.27-17.1,10.36-27.09v-.1l1.86-1.86v2c-.1,10-1.58,17.25-10.79,28.26-6.14,7.34-7,13.82-6.39,18.37a32.17,32.17,0,0,1,1.58-8.28c1.52-4.8,4.87-8.25,7.85-11.36,4.69-4.88,9.48-12.34,9.8-25.67,0-.28,0-2.94,0-5.37l7.53-7.54c0,3.26,0,12.78,0,13.32-.5,19.54-6.61,24.76-11.88,30.48l-.76.83.09,0,.09,0a23.8,23.8,0,0,0,6.31-5.25c3-3.6,5.19-6.92,5.19-6.92-.15,2.76-.55,5.56-3.67,12,7.73-4.64,7.12-16.61,7.08-22.58ZM154.36,226H143.18a1.85,1.85,0,0,1-1.86-1.85h14.9A1.85,1.85,0,0,1,154.36,226Z"/><path class="cls-2" d="M222.23,211.91c15-14.53,15.26-24,12.72-33.53-3-11.22-14.6-20.35-14.71-20.45l-1.4-1.24c-.19,1-.33,1.84-.42,2.6h0c-.37,3.51.26,7.1,2.42,13.2a20.07,20.07,0,0,1,.35,7.91,24.63,24.63,0,0,1-5.67,12.71c-1,1.21-1.87,2.22-2.56,3-3.05,3.52-3.24,4.46-1.34,10.08.12.38,2,7.18,1.81,11.7C216,216.32,219.08,214.26,222.23,211.91Zm-9.11-7.37c-.17-.58-.3-1.08-.4-1.46-.79-3.05.62-4.17,1.91-5.66.71-.82,1.59-1.83,2.6-3.07a27.1,27.1,0,0,0,6.11-13.27c.65-4.31.4-6.6-.34-8.71-1.61-4.61-2.58-8.32-2.51-11.42a36.7,36.7,0,0,1,12.37,21C236,198,220.72,210,215.22,213.74c-.12-.68-.26-1.39-.4-2.09,7.48-6.11,12.2-11.8,14.44-17.39a22.26,22.26,0,0,0,.74-14.38,31.5,31.5,0,0,0-5.63-11.21l1.27,5.87a25.19,25.19,0,0,1,2.29,5.85c1.86,7.55,1.46,16.28-13.61,28.91-.22-1-.42-1.89-.57-2.51,13.76-11.28,13.77-19.68,11.94-26.42l-1.28,6.13C224.31,191.49,221.78,197.25,213.12,204.54Z"/><path class="cls-2" d="M242.47,179.16A36.34,36.34,0,0,0,235,158.8c-2.28-2.84-5-6.07-7.5-9.57a28.43,28.43,0,0,1-.25,4.7c3.56,3.51,12.19,12.82,14.62,22.78C242.11,177.52,242.3,178.34,242.47,179.16Z"/><path class="cls-2" d="M122.79,144.68c-5.56,0-10.14,3.29-13.35,6.59,3.41-2.5,7.81-4.83,12.37-4.83,5.53,0,11.84,3,16.17,5.59-2.94-2.66-9-7.33-15.15-7.35Z"/><path class="cls-2" d="M207.35,215.88A41,41,0,0,0,204,202.81a6.4,6.4,0,0,1-.42-2c-.08-1.85.94-4.91,3.53-7.65,0,0,7.25-6.65,8-15.25a30.49,30.49,0,0,0-1.39-5.07l.11,2.2c.05,9.24-6.54,14.7-8.95,17.74a13.92,13.92,0,0,0-3.27,8.1,8.3,8.3,0,0,0,.53,2.56,31.28,31.28,0,0,1,3.26,12.6c.37,6.07-1.42,11.5-7.09,19.21l1.16,1.81C205.36,229,207.86,222.39,207.35,215.88Z"/><path class="cls-2" d="M201.27,206.77l-1.41,1.44a23.84,23.84,0,0,1,1.31,8.41,22.94,22.94,0,0,1-4.85,14.26c.23.64.46,1.24.7,1.79,3.79-3.8,6.09-9.72,6.09-16C203.11,213.71,203,209.94,201.27,206.77Z"/><path class="cls-2" d="M198.5,209.69a22.64,22.64,0,0,0-1.44,2.42c.16,1.28.22,2.53.25,3.66a22.84,22.84,0,0,1-2.29,10,27.4,27.4,0,0,0,.58,2.76,24.42,24.42,0,0,0,3.64-12.94A16.32,16.32,0,0,0,198.5,209.69Z"/><path class="cls-2" d="M194.83,182.33c0-15.85-1.43-22.34-2-24.42l-1.25,1.16a27.66,27.66,0,0,0-10.39-5.81c0,.15,0,.31,0,.47a5.74,5.74,0,1,1-11.48,0s0,0,0-.07a32.65,32.65,0,0,0-9.75,6.43l-.06-.05c0,1.57,0,3.31,0,5.17,0,6.32.16,13.93.29,20,1.62,1.32,6.16,5.32,6.2,5.35h0c0,1.16-.21,6.76-.22,7a1.88,1.88,0,0,1-1.88,1.8,7,7,0,0,0-4.41,1.58c-.07.21-.14.42-.22.63.47,1,1.79,2.81,5.56,4.87,9.7,5.29,13.76,13.12,13.68,27.17,0,.46,0,1.2,0,2.13,0,.48,0,1,0,1.46h0c.1,5.58.26,15.24.26,19.49,0,.3,0,.62,0,1a61.07,61.07,0,0,1-.07,7.95l.41-.41c2.26-1.91,13.6-11.75,15-18.16.6-2.81-.81-4.93-2.06-7.34-.56-1.08-1.14-2.21-1.68-3.53-1.77-4.4-1.81-15.29-1.84-22.76l-1.94,1.76c0,7.78.06,17,1.93,21.66.57,1.4,1.2,2.62,1.76,3.69,1.16,2.24,2.08,4,1.86,6.35-.17,1.87-4,6.7-8.09,11.32-.71.78-2,2-3,2.95,0-.78-.06-1.66-.1-2.64,2.7-2.76,8.08-8.51,8.45-11.65.34-2.85-1-4.95-2.21-7.38-.54-1.09-.85-2.23-1.36-3.57C184.82,232,184.84,224,185,217l-2,1.85c-.08,6.73,0,13.9,1.48,17.71.54,1.41.9,2.64,1.43,3.72,1.11,2.27,2.32,4.06,2,6.39-.24,2.07-3.73,6.07-6.59,9.12,0-1.25-.1-2.6-.15-4,3.17-2.77,4.69-4.76,4.28-6.61-.62-2.86-4.63-9.14-4.81-9.45h0c-.52-16.37-.93-33.82-.37-35.23C181.31,197.79,194.83,188.49,194.83,182.33Zm-11,63.14c.14.65-.21,1.8-2.75,4.21-.12-3.31-.24-7-.37-10.73A30,30,0,0,1,183.84,245.47Z"/><path class="cls-2" d="M142.28,206.94s-1.1,2.05-7,5.27a17.84,17.84,0,0,0-7.86,9.44s6.7-6.16,12-8.74,6.3-5.27,6.3-5.27C144.91,207.84,142.28,206.94,142.28,206.94Z"/></g><g id="Camada_2" data-name="Camada 2"><path class="cls-2" d="M150.86,41.33h-1.73a79.46,79.46,0,0,0-16.89,2.22L131,37.11l-2.19.39,1.09,6.63c-5.29,1.44-10.57,2.86-15.39,5.27l-2.74-7.34-2.1.76,2.73,7.74a122,122,0,0,0-13.67,8.27l-5-8.56-1.94,1.12,4.93,8.72A95.11,95.11,0,0,0,85.64,71.2l-8.29-9.7-1.71,1.44L84,73.05a91.53,91.53,0,0,0-8.61,12.38l-12.18-10-1.44,1.71L74,87.6a71.59,71.59,0,0,0-5.86,13.29L51.62,91.56,50.5,93.5l16.78,9.89a69.59,69.59,0,0,0-2.55,13.75l-21.68-7.66-.76,2.1,22.15,8.29c-.39,4-.42,7.68-1.64,12.89l-25.07-4.15-.38,2.2L62,135.39c-1.68,4.66-3.9,7-5.76,12.84l-20.42.14v2.24l19.52.1a57.89,57.89,0,0,0-2.89,14.66l-15.08,2.8.38,2.2L52.31,168a65.08,65.08,0,0,0,1.43,15.16L42.29,187.4l.76,2.1,11.24-4a72.89,72.89,0,0,0,5.36,14.57l-9.15,5.39,1.12,1.94,9.15-5.17.21-.12a83.83,83.83,0,0,0,4.75,8.07l.08.12c1.11,1.65,2.29,3.32,3.57,5l-7.65,6.54,1.44,1.71,7.7-6.34c2.44,3,6.64,7.2,10.77,11.51l-6,7.3,1.71,1.43,5.88-6.87c2.91,4.25,8.88,14.35,7.45,27.16-36.68-20-62-61.27-62-107.89,0-63.61,49.91-116.32,114-120.35,0,0,4.17-.12,5.86-.14l0-14.79h2.12Z"/><path class="cls-2" d="M246.56,123.73l32.82-9-.55-2-32.91,8.65C246.15,122.15,246.36,122.93,246.56,123.73Z"/><path class="cls-2" d="M162.58,15.19l-2.1-.19L158,41.6c.8.07,1.6.13,2.4.21Z"/><path class="cls-2" d="M227.27,85,253,63.19l-1.36-1.62L226.1,82.83Q226.7,83.91,227.27,85Z"/><path class="cls-2" d="M222.67,77.28l22.55-22.76L243.73,53,221.26,75.29C221.74,75.94,222.21,76.61,222.67,77.28Z"/><path class="cls-2" d="M249,176.17,278.83,184l.55-2.05-30.3-8.27C249.06,174.52,249,175.34,249,176.17Z"/><path class="cls-2" d="M243.67,115.53,276,103.61l-.72-2-32.68,11.73C242.94,114.05,243.31,114.78,243.67,115.53Z"/><path class="cls-2" d="M233.05,101.78,266.27,82.4l-1.06-1.84L232.5,99.25C232.7,100.09,232.88,100.93,233.05,101.78Z"/><path class="cls-2" d="M239,108.18l32.6-15.39-.89-1.92-33.52,15.44C237.78,106.89,238.38,107.51,239,108.18Z"/><path class="cls-2" d="M230.64,92.86l.12.37L260.07,72.5l-1.21-1.73-29,20.09C230.14,91.52,230.4,92.19,230.64,92.86Z"/><path class="cls-2" d="M215.69,68.57c.48.51.93,1,1.4,1.56l19.59-23.56-1.62-1.36-19.6,23.13C215.53,68.42,215.61,68.49,215.69,68.57Z"/><path class="cls-2" d="M187.32,48.94,196.62,23l-2-.72L185.13,48C185.87,48.32,186.6,48.62,187.32,48.94Z"/><path class="cls-2" d="M174.14,16.8l-2.08-.37-4.78,26.38c.78.14,1.55.31,2.32.48Z"/><path class="cls-2" d="M185.52,19.42l-2-.55L176.35,45c.76.22,1.51.45,2.26.69Z"/><path class="cls-2" d="M246.17,158l36.89,3.05.18-2.11-38.58-3.55A21.63,21.63,0,0,1,246.17,158Z"/><path class="cls-2" d="M195.63,53.06l11.74-25.49-1.92-.9L193.54,51.91C194.24,52.28,194.94,52.67,195.63,53.06Z"/><path class="cls-2" d="M210.64,63.67l16.84-24.28-1.74-1.22L208.82,62.1C209.44,62.62,210.05,63.14,210.64,63.67Z"/><path class="cls-2" d="M247.92,132.32l33.89-6.13-.36-2.09-33.76,5.79C247.78,130.7,247.87,131.51,247.92,132.32Z"/><path class="cls-2" d="M247.7,185.25l27.53,9.88.72-2-27.81-10.27C248,183.66,247.86,184.45,247.7,185.25Z"/><path class="cls-2" d="M246.09,149.61l37.57-.18v-2.11l-36.92-.17C246.55,148,246.33,148.79,246.09,149.61Z"/><path class="cls-2" d="M203,57.62l.47.35L217.68,33,215.85,32,201.47,56.62C202,57,202.48,57.28,203,57.62Z"/><path class="cls-2" d="M248.76,167l32.69,5.61.36-2.08-33.48-6.07C248.5,165.33,248.64,166.18,248.76,167Z"/><path class="cls-2" d="M245.42,194.24l25.26,11.64.89-1.92-25.49-12C245.87,192.7,245.65,193.46,245.42,194.24Z"/><path class="cls-2" d="M247.78,141l35.46-3.27-.18-2.11L248,138.57C247.94,139.39,247.87,140.21,247.78,141Z"/><path class="cls-2" d="M236.19,210.27,258.86,226l1.21-1.73-22.38-15.83C237.2,209.05,236.7,209.66,236.19,210.27Z"/><path class="cls-2" d="M241.62,202.72l23.59,13.47,1.06-1.83-23.5-13.71C242.41,201.34,242,202,241.62,202.72Z"/><path class="cls-2" d="M211.87,239l13.87,19.61,1.74-1.21-14.35-20.7C212.72,237.43,212.3,238.2,211.87,239Z"/><path class="cls-2" d="M208.41,252l7.44,12.75,1.83-1-9.12-16C208.47,249,208.42,250.47,208.41,252Z"/><path class="cls-2" d="M216.5,229.64l18.56,21.91,1.62-1.36-19.16-23.05C217.2,228,216.86,228.8,216.5,229.64Z"/><path class="cls-2" d="M229.8,217l21.88,18.19,1.36-1.62-21.52-18.23C231,215.91,230.38,216.46,229.8,217Z"/><path class="cls-2" d="M222.83,223l20.9,20.7,1.49-1.5L224.7,221.52C224.06,222.05,223.44,222.55,222.83,223Z"/><path class="cls-3" d="M65.73,210.2a71.8,71.8,0,0,1-5-7.95l.21-.12A83.83,83.83,0,0,0,65.73,210.2Z"/></g></svg>